PathFileType	4	(X/Y/Z)	c:/Users/goper/Files/vsCode/490R/osim_files/A06/A06_Fast_02.trc
DataRate	CameraRate	NumFrames	NumMarkers	Units                	OrigDataRate	OrigDataStartFrame	OrigNumFrames
120.00	120.00	4	36	mm	120.0	862	1149
                Frame#	Time	LPSIS			LASIS			LTH1			LTH2			LTH3			LTH4			LLFE			LMFE			LSH1			LSH2			LSH3			LSH4			LLMAL			LMMAL			LCAL			LMTP5			LTOE			LMTP1			RPSIS			RASIS			RTH1			RTH2			RTH3			RTH4			RLFE			RMFE			RSH1			RSH2			RSH3			RSH4			RLMAL			RMMAL			RCAL			RMTP1			RTOE			RMTP5		
		X1	Y1	Z1	X2	Y2	Z2	X3	Y3	Z3	X4	Y4	Z4	X5	Y5	Z5	X6	Y6	Z6	X7	Y7	Z7	X8	Y8	Z8	X9	Y9	Z9	X10	Y10	Z10	X11	Y11	Z11	X12	Y12	Z12	X13	Y13	Z13	X14	Y14	Z14	X15	Y15	Z15	X16	Y16	Z16	X17	Y17	Z17	X18	Y18	Z18	X19	Y19	Z19	X20	Y20	Z20	X21	Y21	Z21	X22	Y22	Z22	X23	Y23	Z23	X24	Y24	Z24	X25	Y25	Z25	X26	Y26	Z26	X27	Y27	Z27	X28	Y28	Z28	X29	Y29	Z29	X30	Y30	Z30	X31	Y31	Z31	X32	Y32	Z32	X33	Y33	Z33	X34	Y34	Z34	X35	Y35	Z35	X36	Y36	Z36

862	7.17500	0.00000	0.00000	0.00000	-4295.04883	917.69061	362.43262	-4120.45166	581.54895	391.37039	-4109.92822	540.30420	382.86801	-4177.11182	561.02313	379.88437	-4159.17578	522.04163	375.78439	-4104.71045	461.25177	367.71667	-4105.03906	457.07684	256.64536	-4015.92505	394.46396	381.23044	-4004.97876	350.59598	384.02841	-4073.15234	372.05835	372.84866	-4056.51978	334.02304	376.18100	-3918.06860	112.30047	341.66061	-3939.71729	118.92380	257.23001	-3849.52881	110.59158	292.10696	-4017.69263	43.72476	366.45123	-4061.34326	56.73637	313.82898	-4039.39941	54.36529	274.04837	0.00000	0.00000	0.00000	-4270.95850	960.66724	109.25349	0.00000	0.00000	0.00000	-4308.38623	537.79987	65.75606	-4338.87012	599.14410	75.60294	-4355.98975	557.86835	70.94358	-4374.84082	440.85129	92.20755	-4378.60742	441.28735	180.45229	-4421.37402	292.45145	101.60593	0.00000	0.00000	0.00000	-4474.57373	311.24417	112.36149	-4488.05322	265.03500	107.74139	0.00000	0.00000	0.00000	0.00000	0.00000	0.00000	-4452.60889	78.58500	145.72127	0.00000	0.00000	0.00000	-4646.37109	166.12752	125.17466	0.00000	0.00000	0.00000
863	7.18333	0.00000	0.00000	0.00000	-4306.19971	916.63239	362.11307	-4125.28516	581.96014	388.11288	-4118.62207	539.83563	382.90216	-4185.45850	560.23865	380.28650	-4167.34912	521.46594	376.23120	-4112.54834	460.97379	367.86600	-4114.16357	456.12122	256.93729	-4022.62451	395.34851	380.76498	-4010.84814	350.81586	385.69431	-4079.61084	371.95203	372.83173	-4062.21143	334.21747	376.11194	-3919.30176	115.23218	340.32666	-3942.26294	120.89101	256.99014	-3851.90894	114.55114	291.56247	-4018.04614	43.83056	366.46158	-4061.82080	56.11876	313.75949	-4040.22339	54.30152	274.07706	0.00000	0.00000	0.00000	-4283.03809	958.98462	108.31368	0.00000	0.00000	0.00000	-4319.28076	535.13922	65.35869	-4350.20996	596.30652	75.54764	-4367.14600	554.97412	70.81270	-4384.89795	437.61966	91.75182	-4388.14648	437.66235	179.98340	-4430.16699	288.69852	100.86774	0.00000	0.00000	0.00000	-4483.44580	307.12598	111.93300	-4496.63623	260.87344	107.16893	0.00000	0.00000	0.00000	0.00000	0.00000	0.00000	-4459.83154	74.88409	144.46989	0.00000	0.00000	0.00000	-4653.96533	160.58838	125.19826	0.00000	0.00000	0.00000
864	7.19167	0.00000	0.00000	0.00000	-4317.35889	915.68005	361.91251	-4134.74951	581.46790	387.99872	-4127.69629	539.40448	382.95224	-4194.39453	559.54974	380.79636	0.00000	0.00000	0.00000	0.00000	0.00000	0.00000	-4123.86084	455.16229	257.38531	0.00000	0.00000	0.00000	-4017.38110	352.05716	385.51724	-4086.48022	371.77924	373.00549	-4067.17969	333.55423	375.77557	-3921.58618	118.21978	340.00854	-3944.87891	122.88491	256.85953	-3854.55444	118.95071	291.07962	-4018.43604	44.03148	366.51361	-4062.16870	55.48899	313.66910	-4041.08643	54.16792	274.14694	0.00000	0.00000	0.00000	-4295.52490	957.25873	107.40276	0.00000	0.00000	0.00000	-4329.08057	531.85706	64.60734	-4361.41650	593.38617	75.46066	-4377.85693	551.77551	70.67153	-4394.47705	434.28952	91.31847	-4397.21094	433.93994	179.54909	-4438.05566	284.75024	100.24913	0.00000	0.00000	0.00000	-4491.46875	302.64340	111.58474	-4502.35156	259.42844	107.35529	0.00000	0.00000	0.00000	0.00000	0.00000	0.00000	-4465.77100	74.71213	143.22723	0.00000	0.00000	0.00000	-4661.62256	152.73380	125.02458	0.00000	0.00000	0.00000
865	7.20000	0.00000	0.00000	0.00000	-4330.66211	916.31079	360.54764	-4144.59814	581.16040	387.82770	-4137.35352	539.04987	383.07275	-4203.81689	558.84363	381.41779	0.00000	0.00000	0.00000	0.00000	0.00000	0.00000	-4134.08643	454.07538	258.15866	0.00000	0.00000	0.00000	-4023.98267	353.87283	383.65503	-4093.93506	371.56497	373.46451	-4075.57422	333.19824	376.29950	-3924.18896	121.34648	339.77786	-3945.65479	124.21822	257.69562	-3857.58643	123.78716	290.60944	-4018.95215	44.36610	366.51865	-4062.52612	54.86131	313.55701	-4042.05566	54.00171	274.30798	0.00000	0.00000	0.00000	-4308.41602	955.52289	106.46774	0.00000	0.00000	0.00000	-4339.03564	529.23584	64.32771	-4372.18506	590.40692	75.17303	-4388.16602	548.72314	70.34669	-4403.24072	430.85101	91.03712	-4405.88477	430.43445	179.22057	-4444.78125	280.73074	100.05621	0.00000	0.00000	0.00000	-4498.48682	297.97260	111.36214	-4508.66016	254.64597	107.18320	0.00000	0.00000	0.00000	0.00000	0.00000	0.00000	-4464.20557	76.18487	140.63013	0.00000	0.00000	0.00000	-4667.17188	144.66718	124.85876	0.00000	0.00000	0.00000
